<svg xmlns="http://www.w3.org/2000/svg" width="195" height="212" viewBox="0 0 195 212" fill="none">
  <g clip-path="url(#clip0_254_1578)">
    <path d="M182.769 0.30451H32.0735C26.5455 0.30451 22.0503 4.80657 22.0503 10.3431V113.77C22.0503 119.306 26.5455 123.808 32.0735 123.808H182.769C188.297 123.808 192.792 119.306 192.792 113.77V10.3431C192.792 4.80657 188.297 0.30451 182.769 0.30451Z" fill="#F2F2F2"/>
    <path d="M166.42 8.27101H15.7243C10.1963 8.27101 5.70117 12.7731 5.70117 18.3096V121.736C5.70117 127.273 10.1963 131.775 15.7243 131.775H166.42C171.948 131.775 176.443 127.273 176.443 121.736V18.3096C176.443 12.7731 171.948 8.27101 166.42 8.27101ZM175.389 91.2949C175.389 113.068 157.765 130.719 136.025 130.719H15.7243C10.7708 130.719 6.75513 126.697 6.75513 121.736V18.3096C6.75513 13.3484 10.7708 9.3266 15.7243 9.3266H166.42C171.373 9.3266 175.389 13.3484 175.389 18.3097V91.2949Z" fill="#3F3D56"/>
    <path d="M27.2263 109.361L26.3345 108.799C26.9142 107.876 27.5125 106.982 28.112 106.14L28.9699 106.754C28.3819 107.578 27.7955 108.456 27.2263 109.361Z" fill="#CCCCCC"/>
    <path d="M33.0376 101.839L32.2832 101.102C33.8914 99.4511 35.584 98.0339 37.3137 96.8899L37.8947 97.7708C36.2276 98.8733 34.5934 100.242 33.0376 101.839ZM59.3316 95.1759C58.0731 95.1759 56.9265 95.0146 56.0681 94.8739L56.2384 93.8322C57.1081 93.9747 58.1557 94.1203 59.3316 94.1203C60.3701 94.1203 61.3909 94.0062 62.452 93.7709L62.6795 94.8017C61.5427 95.0535 60.4476 95.1759 59.3316 95.1759ZM43.561 95.0362L43.244 94.0296C44.3762 93.6719 45.5491 93.4039 46.7299 93.2325C47.744 93.0856 48.7135 93.0142 49.6936 93.0142H49.7585V94.0698H49.6936C48.7645 94.0698 47.8446 94.1376 46.8809 94.2773C45.7562 94.4404 44.6389 94.6958 43.561 95.0362ZM68.6829 91.9857L68.0093 91.1739C69.4636 89.9639 70.506 88.5009 71.6099 86.9518L72.0501 86.3356L72.9054 86.9526L72.4678 87.5649C71.3232 89.1712 70.242 90.6886 68.6829 91.9857ZM77.1352 82.3071L76.4867 81.4747C77.9074 80.3644 79.5125 79.4648 81.3935 78.7244C81.7138 78.5981 82.02 78.4855 82.3139 78.3852L82.6541 79.3841C82.3746 79.4797 82.0839 79.5867 81.7792 79.7068C79.9937 80.4095 78.4748 81.26 77.1352 82.3071ZM89.8591 78.6406C89.5046 78.6406 89.1682 78.6373 88.845 78.6337L88.8574 77.5781C89.1878 77.5819 89.5326 77.5827 89.8975 77.585C91.1377 77.585 92.8651 77.5497 95.2344 77.275L95.3559 78.3234C92.9083 78.6074 91.1537 78.637 89.8591 78.6406ZM101.767 77.2582L101.558 76.2238C103.451 75.8403 105.654 75.3839 107.834 74.8206L108.097 75.8426C105.892 76.4124 103.674 76.8722 101.767 77.2582ZM114.306 73.8415L113.911 72.8625C116.025 72.0092 117.86 71.0469 119.521 69.9202L120.112 70.7943C118.388 71.9633 116.489 72.9601 114.306 73.8415ZM124.955 66.2988L124.099 65.6818C124.393 65.2731 124.648 64.8744 124.893 64.4889C125.619 63.3508 126.369 62.1739 128.157 60.7291L128.282 60.6289L128.935 61.4572L128.819 61.5502C127.165 62.8872 126.493 63.9413 125.782 65.0571C125.528 65.4548 125.266 65.8661 124.955 66.2988ZM134.41 58.3819L134.025 57.399C135.903 56.6614 138.025 56.0679 140.331 55.6347L140.525 56.6723C138.284 57.0934 136.227 57.6686 134.41 58.3819Z" fill="#CCCCCC"/>
    <path d="M146.968 55.897L146.902 54.8435C147.926 54.7794 148.997 54.7371 150.084 54.7175L150.103 55.7731C149.031 55.7922 147.976 55.8339 146.968 55.897Z" fill="#CCCCCC"/>
    <path d="M38.9789 19.7094H24.1918C23.4488 19.7094 22.8428 20.3164 22.8428 21.0605C22.8428 21.81 23.4488 22.417 24.1918 22.417H38.9789C39.722 22.417 40.328 21.81 40.328 21.0605C40.328 20.3164 39.722 19.7094 38.9789 19.7094Z" fill="#E6E6E6"/>
    <path d="M63.747 19.7094H48.9599C48.2169 19.7094 47.6108 20.3164 47.6108 21.0605C47.6108 21.81 48.2169 22.417 48.9599 22.417H63.747C64.49 22.417 65.0961 21.81 65.0961 21.0605C65.0961 20.3164 64.49 19.7094 63.747 19.7094Z" fill="#E6E6E6"/>
    <path d="M88.5151 19.7094H73.728C72.9849 19.7094 72.3789 20.3164 72.3789 21.0605C72.3789 21.81 72.9849 22.417 73.728 22.417H88.5151C89.2581 22.417 89.8641 21.81 89.8641 21.0605C89.8641 20.3164 89.2581 19.7094 88.5151 19.7094Z" fill="#E6E6E6"/>
    <path d="M157.207 108.553H22.8271V109.608H157.207V108.553Z" fill="#E6E6E6"/>
    <path d="M150.109 31.4952C140.544 31.7433 133.409 34.5617 128.887 39.8607C127.217 41.8241 126.537 43.3706 125.82 45.0067C125.109 46.6218 124.382 48.2843 122.69 50.4536V48.659C123.739 47.1179 124.302 45.8301 124.856 44.5792C125.604 42.8692 126.316 41.2541 128.086 39.1799C132.808 33.6381 140.207 30.6982 150.077 30.4396L150.109 31.4952Z" fill="#CCCCCC"/>
    <path d="M125.821 45.0069C125.109 46.622 124.382 48.2845 122.691 50.4538C122.49 50.7124 122.274 50.9816 122.042 51.2613C115.94 58.529 107.788 60.9146 101.232 62.8358C100.821 62.9572 100.42 63.068 100.03 63.1736C94.2021 64.7569 91.0086 64.6989 88.6319 64.6619C86.2447 64.6197 84.669 64.5933 81.8497 66.2084C76.68 69.1588 74.5615 73.4761 72.5116 77.651C70.3984 81.9472 68.4064 86.0059 63.3263 87.9113C59.8008 89.2307 57.324 88.5763 54.7049 87.8901C52.4547 87.2937 48.3992 72.6137 44.8082 70.473C37.3936 72.0299 32.8879 96.2979 27.265 109.292L26.2954 108.87C32.0658 95.5484 36.8192 71.0746 44.5869 69.4385C48.0491 68.7101 52.6075 86.2434 54.9737 86.8662C57.4294 87.5154 59.7428 88.1224 62.9574 86.919C67.6475 85.1667 69.4603 81.4669 71.563 77.1865C73.5866 73.0697 75.879 68.404 81.3227 65.29C84.395 63.5325 86.1814 63.5642 88.6477 63.6064C90.998 63.6486 94.1704 63.7014 100.03 62.0811C100.326 61.9966 100.626 61.9122 100.937 61.8224C107.355 59.9435 115.339 57.6054 121.231 50.5857C121.811 49.8943 122.29 49.2557 122.691 48.6593C123.739 47.1181 124.303 45.8303 124.856 44.5794C125.605 42.8694 126.538 43.3708 125.821 45.0069Z" fill="#19223D"/>
    <path d="M69.6234 165.754C69.2062 164.299 68.4919 163.058 67.6414 162.173L64.5513 148.065L57.8159 149.718L61.6756 163.851C61.4218 165.047 61.4726 166.474 61.8898 167.929C62.8427 171.253 65.3465 173.46 67.4821 172.859C69.6177 172.259 70.5764 169.078 69.6234 165.754Z" fill="#FFB6B6"/>
    <path d="M68.6918 73.2103C68.6918 73.2103 58.0551 72.9922 55.3504 80.7501C52.8886 87.8114 49.9702 107.211 51.5479 108.332L58.263 156.09L67.8387 154.772L65.3811 97.4701L68.6918 73.2103Z" fill="#19223D"/>
    <path d="M117.948 161.859L116.061 211.999H91.0297L90.018 189.531L85.5702 211.999H58.7417L62.088 173.376L65.545 165.253L67.8848 159.748L117.948 161.859Z" fill="#2F2E41"/>
    <path d="M97.9225 63.6903L80.5322 62.6347L74.7354 70.0238L62.0879 74.774L67.8847 131.248L65.2498 165.027C65.2498 165.027 102.138 194.583 117.948 161.86L113.732 122.275L114.786 76.3573L102.665 71.0794L97.9225 63.6903Z" fill="#19223D"/>
    <path d="M131.401 50.8442C131.59 52.6741 131.35 54.3949 130.799 55.7746L133.696 73.0925L125.427 74.232L123.379 56.542C122.557 55.3044 121.972 53.6689 121.783 51.8391C121.352 47.6588 123.156 44.0474 125.812 43.7727C128.468 43.4979 130.97 46.664 131.401 50.8442Z" fill="#FFB6B6"/>
    <path d="M117 78.34C114.15 73.4606 107.079 73.0006 103.912 77.6802C103.047 78.9595 103.288 80.3974 103.081 82.1251C102.204 89.4595 116.237 111.133 125.947 113.628C127.221 113.955 127.947 115.332 129.233 115.609C133.043 116.429 136.59 113.4 136.385 109.503L133.747 59.5166L122.666 63.302L123.375 89.2539L117 78.34Z" fill="#19223D"/>
    <path d="M91.0315 61.2684C99.4915 61.2684 106.35 54.3996 106.35 45.9266C106.35 37.4536 99.4915 30.5849 91.0315 30.5849C82.5715 30.5849 75.7134 37.4536 75.7134 45.9266C75.7134 54.3996 82.5715 61.2684 91.0315 61.2684Z" fill="#FFB6B6"/>
    <path d="M105.3 34.6612C105.168 34.6929 107.316 32.5958 107.408 32.55C109.516 31.4944 107.35 41.8128 105.827 41.5225C102.08 40.8099 100.462 39.3955 99.0077 42.9264C98.6019 43.9081 98.349 45.0165 97.5585 45.7184C96.4729 46.6737 94.6706 46.5946 93.7853 47.7346C93.0739 48.653 93.2794 50.0041 93.8064 51.0386C94.3334 52.0783 95.1344 52.9597 95.6139 54.0206C96.1515 55.2134 93.8591 59.0083 92.9843 61.1405V61.1458L92.9791 61.1583C92.7467 61.7176 92.1943 60.1065 91.6111 59.9456C90.9133 59.7532 89.8852 61.4035 88.7737 61.1036C88.7685 61.1036 88.7632 61.0983 88.7579 61.0983C87.6987 60.8027 86.5183 60.4861 85.3484 60.1694H85.3431C82.0495 59.2722 81.2168 60.56 81.0587 60.523L79.0141 58.3802C78.3124 57.8685 78.3917 56.2166 77.8969 55.7729C77.4922 55.41 76.4834 56.2485 76.1861 55.8997C74.7283 54.1897 74.3928 52.479 73.5335 49.1016C72.7483 46.014 71.1199 36.7723 74.4662 36.3554C77.6228 35.9595 75.3147 31.5577 78.4924 31.7213C78.3026 30.9191 78.6557 30.0588 79.2301 29.4677C79.7993 28.8713 80.5581 28.5018 81.3222 28.1851C85.0902 26.644 84.463 25.3192 88.4365 26.2165C88.8317 25.6623 94.5705 26.0317 95.2872 26.2165C95.3399 26.227 93.5113 26.6651 96.3412 26.2165C96.2358 26.8657 98.0275 27.1507 97.9221 27.7998C98.3173 27.2668 102.565 30.328 102.665 30.9666C102.797 31.7636 101.595 31.3572 102.396 31.4785C102.87 31.5524 103.682 32.5183 103.603 32.9986C103.945 32.5341 104.288 32.075 104.636 31.6105C104.699 31.6158 104.757 31.6263 104.82 31.6369C106.422 31.943 104.586 37.1882 104.652 35.5531C104.773 32.55 106.897 34.3075 105.3 34.6612Z" fill="#2F2E41"/>
    <path d="M163.985 116.317C164.103 116.608 164.51 116.608 164.628 116.317C165.451 114.285 166.623 112.01 167.897 110.271C168.101 109.993 167.82 109.621 167.495 109.738L164.764 110.728V93.7929H163.85V110.728L161.117 109.738C160.793 109.621 160.512 109.993 160.716 110.271C161.99 112.01 163.162 114.285 163.985 116.317Z" fill="#3F3D56"/>
    <path d="M181.897 133.754C181.808 134.056 182.127 134.309 182.401 134.155C184.307 133.076 186.637 132.024 188.714 131.456C189.047 131.365 189.058 130.899 188.731 130.789L185.977 129.863L196.493 116.601L195.777 116.032L185.261 129.293L183.736 126.816C183.555 126.522 183.104 126.638 183.091 126.983C183.009 129.139 182.514 131.65 181.897 133.754Z" fill="#3F3D56"/>
    <path d="M173.342 145.056H155.571C154.468 145.056 153.57 144.157 153.57 143.052C151.221 136.174 151.267 129.434 153.57 122.825C153.57 121.72 154.468 120.821 155.571 120.821H173.342C174.445 120.821 175.343 121.72 175.343 122.825V143.052C175.343 144.157 174.445 145.056 173.342 145.056Z" fill="#E6E6E6"/>
    <path d="M159.379 121.418C156.5 121.418 154.167 123.755 154.167 126.638V142.622C154.167 143.636 154.987 144.458 156 144.458H165.827C170.753 144.458 174.747 140.459 174.747 135.525V123.254C174.747 122.24 173.926 121.418 172.913 121.418H159.379Z" fill="white"/>
    <path d="M168.595 127.296H160.275C160.065 127.296 159.895 127.125 159.895 126.915C159.895 126.705 160.065 126.534 160.275 126.534H168.595C168.805 126.534 168.975 126.705 168.975 126.915C168.975 127.125 168.805 127.296 168.595 127.296Z" fill="#E6E6E6"/>
    <path d="M168.595 135.42H160.275C160.065 135.42 159.895 135.249 159.895 135.039C159.895 134.829 160.065 134.658 160.275 134.658H168.595C168.805 134.658 168.975 134.829 168.975 135.039C168.975 135.249 168.805 135.42 168.595 135.42Z" fill="#E6E6E6"/>
    <path d="M173.06 131.361H155.811C155.601 131.361 155.43 131.19 155.43 130.98C155.43 130.77 155.601 130.599 155.811 130.599H173.06C173.269 130.599 173.44 130.77 173.44 130.98C173.44 131.19 173.269 131.361 173.06 131.361Z" fill="#E6E6E6"/>
    <path d="M173.263 138.723H166.066C165.856 138.723 165.686 138.552 165.686 138.342C165.686 138.132 165.856 137.961 166.066 137.961H173.263C173.473 137.961 173.644 138.132 173.644 138.342C173.644 138.552 173.473 138.723 173.263 138.723Z" fill="#E6E6E6"/>
  </g>
  <defs>
    <clipPath id="clip0_254_1578">
      <rect width="194.034" height="212" fill="white"/>
    </clipPath>
  </defs>
</svg>