<svg xmlns="http://www.w3.org/2000/svg" width="218" height="184" viewBox="0 0 218 184" fill="none">
<path d="M218 133.469C215.16 136.5 212.151 139.405 208.973 142.185L198.084 142.192L139.524 142.248L128.982 142.258L121.973 142.266L111.547 142.273L103.527 142.28L88.7124 142.294L79.9741 142.304L61.5728 142.318L52.7891 142.329L28.4481 142.35L13.1591 142.364L9.05616 142.367C8.14394 141.574 7.24548 140.768 6.36078 139.951C4.15659 137.918 2.03633 135.822 0 133.663L8.4948 133.655L14.2818 133.652L27.6803 133.638L53.5362 133.617L62.2745 133.61L65.8078 133.606H65.8202L68.594 133.603L69.8364 133.599L73.0189 133.596H74.3645L83.8004 133.589L104.154 133.568L113.111 133.561L121.689 133.554L129.729 133.547L141.266 133.536L202.884 133.483L218 133.469Z" fill="#CCCCCC"/>
<path d="M69.2942 136.806L70.5021 136.788L70.1688 113.822C70.1204 110.075 71.0382 106.38 72.8306 103.107C74.623 99.834 77.2273 97.0968 80.3835 95.1688L103.439 81.1374L102.819 80.0816L79.7638 94.1135C76.4259 96.1524 73.6716 99.0471 71.7759 102.509C69.8803 105.97 68.9097 109.878 68.9609 113.841L69.2942 136.806Z" fill="#3F3D56"/>
<path d="M100.102 88.2328C100.102 89.8738 101.347 91.2041 102.882 91.2041C104.418 91.2041 105.663 89.8738 105.663 88.2328V69.7059C105.663 68.065 104.418 66.7347 102.882 66.7347C101.347 66.7347 100.102 68.065 100.102 69.7059V88.2328Z" fill="#19223D"/>
<path d="M102.206 37.4337L135.42 75.9666L163.738 87.8673L171.286 73.4634C164.361 65.3749 141.767 55.6666 141.767 55.6666L111.087 28.6508C111.032 28.4521 110.973 28.2535 110.9 28.0565C110.469 26.9005 109.742 25.873 108.789 25.0733C107.836 24.2736 106.689 23.7287 105.459 23.4914C104.229 23.2541 102.957 23.3323 101.767 23.7185C100.577 24.1047 99.5079 24.7858 98.664 25.696C97.8201 26.6063 97.2297 27.7148 96.9497 28.9145C96.6697 30.1142 96.7097 31.3646 97.0658 32.5447C97.4219 33.7248 98.082 34.7948 98.9824 35.6512C99.8828 36.5076 100.993 37.1216 102.206 37.4337Z" fill="#FCDBE0"/>
<path d="M209.123 103.971L205.339 117.517L203.128 133.172L202.446 137.985L202.43 138.087L198.227 142.059L198.35 143.306L198.679 146.628L199.225 152.545C179.819 168.906 156.25 179.624 131.113 183.519C131.109 183.523 131.109 183.519 131.109 183.519C127.753 182.562 125.119 181.524 124.059 180.769C123.64 180.474 123.451 180.213 123.459 179.947C123.504 178.178 128.554 171.828 129.318 170.876L131.323 162.621L135.415 161.003L134.404 155.197L139.877 149.451L140.033 143.538L140.062 143.371L141.796 133.233L145.255 113.043L145.608 110.975L145.288 95.0302L145.193 90.2003L145.083 84.6919C145.053 83.2756 145.158 81.8596 145.395 80.4627C145.57 79.4105 145.823 78.3725 146.151 77.3571C147.062 74.5295 148.526 71.9085 150.458 69.6444C152.39 67.3802 154.751 65.5174 157.408 64.1625C157.618 64.0562 157.827 63.9541 158.041 63.8519C158.041 63.8519 158.041 63.8478 158.045 63.8519C159.688 63.0794 161.42 62.5073 163.201 62.148L163.719 61.2326L168.789 52.2755L184.327 52.6719L193.596 67.1005L201.333 74.7378C205.122 78.4853 207.84 83.1678 209.209 88.305C210.578 93.4422 210.548 98.8491 209.123 103.971Z" fill="#19223D"/>
<path d="M174.623 46.7143C186.294 46.7143 195.756 37.7508 195.756 26.6939C195.756 15.6369 186.294 6.67346 174.623 6.67346C162.952 6.67346 153.49 15.6369 153.49 26.6939C153.49 37.7508 162.952 46.7143 174.623 46.7143Z" fill="#FCDBE0"/>
<path d="M171.937 46.7003C175.118 46.7494 178.298 46.5296 181.442 46.0434C184.559 45.4168 191.53 40.3653 193.473 37.3256C194.917 35.0671 195.84 31.5403 196.361 28.9795C197.062 25.5908 197.035 22.0943 196.282 18.7165C195.53 15.3387 194.068 12.1548 191.992 9.37104C191.194 8.20667 190.093 7.27718 188.805 6.68091C188.69 6.63676 188.573 6.59764 188.454 6.56419C186.577 6.07579 184.89 5.04374 183.61 3.60055C183.362 3.30864 183.093 3.0348 182.805 2.78113C181.359 1.57416 179.644 0.722786 177.801 0.296605C174.826 -0.490606 170.521 0.290797 165.006 2.62137C162.235 3.7923 159.205 3.36854 156.873 2.8685C156.743 2.84353 156.607 2.85284 156.481 2.89553C156.355 2.93821 156.243 3.01277 156.155 3.11179C155.163 4.03253 153.856 4.54793 152.495 4.55438C151.662 4.59056 150.788 5.7314 149.731 7.21911C149.491 7.55681 149.211 7.95096 149.01 8.19068L148.983 7.73012L148.511 8.24391C147.77 9.05143 147.248 10.0312 146.993 11.092C146.738 12.1528 146.759 13.2602 147.054 14.3109C147.348 15.3616 147.907 16.3216 148.677 17.1014C149.448 17.8812 150.406 18.4555 151.461 18.7707C152.3 18.9912 153.158 19.1266 154.024 19.1746C154.549 19.2213 155.092 19.2695 155.612 19.3587C157.28 19.6967 158.832 20.4567 160.115 21.5647C161.398 22.6726 162.369 24.0906 162.933 25.6803C163.066 26.0477 163.283 26.38 163.566 26.6514C163.85 26.9228 164.193 27.1261 164.569 27.2457C164.945 27.3652 165.343 27.3977 165.734 27.3408C166.124 27.2838 166.496 27.1389 166.821 26.9172C167.363 26.5001 167.999 26.2187 168.674 26.0971C169.349 25.9755 170.045 26.0172 170.7 26.2187C171.267 26.5302 171.708 27.0249 171.949 27.6197C172.243 28.2824 172.729 28.8436 173.347 29.2317C175.458 30.3083 175.604 35.0776 174.846 39.0535C174.114 42.8858 172.669 45.6581 171.331 45.7952C170.301 45.9006 170.183 45.9729 170.109 46.1531L170.042 46.3143L170.158 46.4652C170.727 46.6691 171.333 46.7493 171.937 46.7003Z" fill="#2F2E41"/>
<path d="M159.051 104.567L151.068 88.9796C139.48 89.7548 116.482 102.876 116.482 102.876L72.9681 111.911C71.679 111.426 70.2822 111.282 68.9182 111.493C67.5541 111.705 66.2711 112.264 65.1981 113.116C64.1252 113.967 63.3002 115.08 62.8062 116.343C62.3123 117.606 62.1667 118.975 62.3843 120.31C62.6019 121.646 63.1749 122.902 64.0456 123.951C64.9164 125.001 66.0541 125.808 67.3443 126.29C68.6346 126.772 70.0318 126.913 71.3953 126.698C72.7588 126.484 74.0405 125.921 75.1113 125.067L130.464 121.181L159.051 104.567Z" fill="#FCDBE0"/>
<path d="M156.031 106.776L177.072 90.9842L180.779 77.4955C181.497 74.8448 181.466 72.0441 180.691 69.4099C179.916 66.7756 178.426 64.4129 176.391 62.5887C173.616 60.1347 170.021 58.8365 166.334 58.9566C162.647 59.0768 159.143 60.6063 156.53 63.2359C148.612 71.2175 139.581 82.3525 141.521 90.0738L141.541 90.1521L156.031 106.776Z" fill="#19223D"/>
</svg>