<svg xmlns="http://www.w3.org/2000/svg" width="217" height="212" viewBox="0 0 217 212" fill="none">
  <g clip-path="url(#clip0_254_1143)">
    <path d="M67.0101 155.518H39.8283C39.143 155.518 38.5854 154.96 38.5854 154.275C38.5854 153.589 39.143 153.031 39.8283 153.031H67.0102C67.6954 153.031 68.2528 153.589 68.2528 154.275C68.2528 154.96 67.6954 155.518 67.0101 155.518Z" fill="#19223D"/>
    <path d="M18.4648 162.174C18.4648 162.398 18.6441 162.577 18.8674 162.577H87.9711C88.1944 162.577 88.3737 162.398 88.3737 162.174C88.3737 161.951 88.1944 161.772 87.9711 161.772H18.8674C18.6441 161.772 18.4648 161.951 18.4648 162.174Z" fill="#3F3D56"/>
    <path d="M0 189.973C0 190.196 0.179289 190.376 0.402553 190.376H177.074C177.297 190.376 177.476 190.196 177.476 189.973C177.476 189.749 177.297 189.57 177.074 189.57H0.402553C0.179289 189.57 0 189.749 0 189.973Z" fill="#3F3D56"/>
    <path d="M2.55563 162.775L1.99048 162.155L57.1489 111.796L77.0215 120.709L98.481 83.888L116.112 75.385L132.448 102.626C141.267 79.781 163.385 55.8801 189.888 31.631L190.54 32.1592C165.683 55.9704 144.415 79.8897 132.345 104.086L117.235 78.8152C116.522 77.6214 115.021 77.1602 113.761 77.7471C104.124 82.2338 96.085 89.5574 90.7201 98.7386L77.2778 121.743L74.2093 120.367C63.947 115.764 51.9333 117.693 43.6259 125.278L2.55563 162.775Z" fill="#3F3D56"/>
    <path d="M191.131 36.2158L190.294 36.274L188.943 33.3439L185.917 32.729L185.8 31.8974L190.787 31.1883L191.131 36.2158Z" fill="#3F3D56"/>
    <path d="M105.093 54.1447L108.058 42.74L119.609 42.1841L123.064 57.9051L105.093 54.1447Z" fill="#FFB6B6"/>
    <path opacity="0.1" d="M105.093 54.1447L108.058 42.74L119.609 42.1841L123.064 57.9051L105.093 54.1447Z" fill="black"/>
    <path d="M112.693 49.1224C120.393 49.1224 126.635 42.877 126.635 35.1729C126.635 27.4688 120.393 21.2234 112.693 21.2234C104.993 21.2234 98.7515 27.4688 98.7515 35.1729C98.7515 42.877 104.993 49.1224 112.693 49.1224Z" fill="#FFB6B6"/>
    <path d="M120.386 38.1255C120.386 38.1255 115.09 27.6261 108.884 28.2323C102.679 28.8384 99.4094 29.5757 99.4094 29.5757C99.4094 29.5757 97.5673 21.3982 106.24 18.2527C106.24 18.2527 95.213 7.37712 108.341 2.04216C121.47 -3.2928 128.816 3.51127 128.816 3.51127C128.816 3.51127 138.534 13.2177 126.294 20.4724C126.294 20.4724 135.382 32.7034 124.379 42.7846C124.379 42.7846 126.84 34.6267 124.272 36.1312C121.705 37.6356 120.386 38.1255 120.386 38.1255Z" fill="#2F2E41"/>
    <path d="M97.311 111.827L95.4565 113.605L82.0588 142.348L80.5923 189.89H103.102L113.661 166.346L120.776 189.663H141.016L145.707 147.337L133.095 117.403L97.311 111.827Z" fill="#2F2E41"/>
    <path d="M120.629 52.9857H105.597L89.2451 61.7899L93.0582 78.8112C93.0582 78.8112 92.1782 89.0826 94.2314 96.7129C96.2846 104.343 95.4047 114.321 95.4047 114.321L133.095 117.403L134.268 82.773L133.682 59.5888L120.629 52.9857Z" fill="#E6E6E6"/>
    <path d="M91.7381 61.9366C91.7381 61.9366 82.6454 62.2301 81.1789 68.0995C79.7123 73.9689 78.5391 104.196 78.5391 104.196C78.5391 104.196 79.419 122.133 89.2449 113.605C99.0709 105.077 98.1909 79.2514 98.1909 79.2514L91.7381 61.9366Z" fill="#E6E6E6"/>
    <path d="M179.931 211.662H126.347C124.533 211.662 123.056 210.184 123.056 208.369V152.945C123.056 151.129 124.533 149.652 126.347 149.652H179.931C181.746 149.652 183.222 151.129 183.222 152.945V208.369C183.222 210.184 181.746 211.662 179.931 211.662Z" fill="white"/>
    <path d="M179.931 212H126.347C124.346 212 122.718 210.371 122.718 208.369V152.945C122.718 150.943 124.346 149.314 126.347 149.314H179.931C181.932 149.314 183.561 150.943 183.561 152.945V208.369C183.561 210.371 181.932 212 179.931 212ZM126.347 149.991C124.719 149.991 123.394 151.316 123.394 152.945V208.369C123.394 209.998 124.719 211.323 126.347 211.323H179.931C181.559 211.323 182.884 209.998 182.884 208.369V152.945C182.884 151.316 181.559 149.991 179.931 149.991H126.347Z" fill="#3F3D56"/>
    <path d="M155.254 197.101H150.838C150.3 197.101 149.863 196.763 149.863 196.348V177.324C149.863 176.908 150.3 176.57 150.838 176.57H155.254C155.792 176.57 156.229 176.908 156.229 177.324V196.348C156.229 196.763 155.792 197.101 155.254 197.101Z" fill="#19223D"/>
    <path d="M140.653 185.89C140.219 185.89 139.865 186.163 139.865 186.498V196.327C139.865 196.662 140.219 196.935 140.653 196.935H145.07C145.504 196.935 145.857 196.662 145.857 196.327V186.498C145.857 186.163 145.504 185.89 145.07 185.89H140.653Z" fill="#19223D"/>
    <path d="M165.438 197.101H161.022C160.484 197.101 160.047 196.763 160.047 196.348V165.17C160.047 164.755 160.484 164.417 161.022 164.417H165.438C165.976 164.417 166.414 164.755 166.414 165.17V196.348C166.414 196.763 165.976 197.101 165.438 197.101Z" fill="#19223D"/>
    <path d="M70.4009 60.4371H65.3561C64.7418 60.4371 64.2422 60.0512 64.2422 59.5768V37.8453C64.2422 37.3709 64.7418 36.985 65.3561 36.985H70.4009C71.0151 36.985 71.5148 37.3709 71.5148 37.8453V59.5768C71.5148 60.0512 71.0151 60.4371 70.4009 60.4371Z" fill="#19223D"/>
    <path d="M53.7223 47.6305C53.226 47.6305 52.8223 47.9423 52.8223 48.3256V59.5525C52.8223 59.9358 53.226 60.2476 53.7223 60.2476H58.7671C59.2633 60.2476 59.667 59.9358 59.667 59.5525V48.3256C59.667 47.9423 59.2633 47.6305 58.7671 47.6305H53.7223Z" fill="#19223D"/>
    <path d="M82.0347 60.4371H76.9899C76.3756 60.4371 75.876 60.0512 75.876 59.5768V23.9627C75.876 23.4884 76.3756 23.1025 76.9899 23.1025H82.0347C82.6489 23.1025 83.1485 23.4884 83.1485 23.9627V59.5768C83.1485 60.0512 82.6489 60.4371 82.0347 60.4371Z" fill="#19223D"/>
    <path d="M144.924 157.716C147.537 157.466 149.337 153.933 148.943 149.824C148.809 148.18 148.283 146.592 147.409 145.194L146.906 140.543L146.983 140.52L148.249 118.467C148.543 113.34 146.515 108.301 142.606 104.972C140.281 102.991 137.801 101.988 136.206 104.491C133.559 108.643 136.987 125.761 139.239 135.493L140.111 145.893C139.519 147.432 139.303 149.091 139.482 150.731C139.875 154.839 142.311 157.967 144.924 157.716Z" fill="#FFB6B6"/>
    <path d="M130.455 60.1758C130.455 60.1758 138.081 57.2411 141.601 66.0452C145.121 74.8493 148.934 118.283 148.934 118.283L131.042 115.055L130.455 60.1758Z" fill="#E6E6E6"/>
    <path d="M25.7391 55.8695H15.4704C14.7851 55.8695 14.2275 55.3116 14.2275 54.626C14.2275 53.9403 14.7851 53.3827 15.4704 53.3827H25.7391C26.4244 53.3827 26.9817 53.9403 26.9817 54.626C26.9817 55.3116 26.4244 55.8695 25.7391 55.8695Z" fill="#E6E6E6"/>
    <path d="M25.7391 38.2435H15.4704C14.7851 38.2435 14.2275 37.6856 14.2275 36.9999C14.2275 36.3143 14.7851 35.7567 15.4704 35.7567H25.7391C26.4244 35.7567 26.9817 36.3143 26.9817 36.9999C26.9817 37.6856 26.4244 38.2435 25.7391 38.2435Z" fill="#E6E6E6"/>
    <path d="M25.7391 25.5324H15.4704C14.7851 25.5324 14.2275 24.9745 14.2275 24.2889C14.2275 23.6032 14.7851 23.0456 15.4704 23.0456H25.7391C26.4244 23.0456 26.9817 23.6032 26.9817 24.2889C26.9817 24.9745 26.4244 25.5324 25.7391 25.5324Z" fill="#E6E6E6"/>
    <path d="M13.8157 60.4986C13.8157 60.7219 13.995 60.9013 14.2182 60.9013H83.322C83.5452 60.9013 83.7245 60.7219 83.7245 60.4986C83.7245 60.2752 83.5452 60.0958 83.322 60.0958H14.2182C13.995 60.0958 13.8157 60.2752 13.8157 60.4986Z" fill="#3F3D56"/>
    <path d="M147.091 164.74C147.091 164.963 147.271 165.143 147.494 165.143H216.598C216.821 165.143 217 164.963 217 164.74C217 164.517 216.821 164.337 216.598 164.337H147.494C147.271 164.337 147.091 164.517 147.091 164.74Z" fill="#3F3D56"/>
    <path d="M126.795 197.569C126.795 197.793 126.975 197.972 127.198 197.972H196.302C196.525 197.972 196.704 197.793 196.704 197.569C196.704 197.346 196.525 197.167 196.302 197.167H127.198C126.975 197.167 126.795 197.346 126.795 197.569Z" fill="#3F3D56"/>
    <path d="M80.3265 58.4624C77.7135 58.7127 75.9142 62.2456 76.3073 66.355C76.4419 67.9988 76.9679 69.5863 77.8413 70.9849L78.345 75.6359L78.2678 75.6591L77.002 97.7116C76.7076 102.839 78.7362 107.877 82.6446 111.207C84.9696 113.188 87.4499 114.19 89.0448 111.688C91.6913 107.535 88.2633 90.4177 86.0122 80.6857L85.1394 70.286C85.7323 68.7465 85.948 67.0874 85.7685 65.4475C85.376 61.3394 82.9394 58.2121 80.3265 58.4624Z" fill="#FFB6B6"/>
  </g>
  <defs>
    <clipPath id="clip0_254_1143">
      <rect width="217" height="212" fill="white"/>
    </clipPath>
  </defs>
</svg>