<svg xmlns="http://www.w3.org/2000/svg" width="216" height="156" viewBox="0 0 216 156" fill="none">
  <g clip-path="url(#clip0_254_1614)">
    <path d="M137.646 116.948V154.554H43.0884C32.3148 154.554 23.5493 146.119 23.5493 135.751C23.5493 125.383 32.3148 116.948 43.0884 116.948H137.646Z" fill="#F2F2F2"/>
    <path d="M139.969 154.264C139.969 154.648 139.816 155.016 139.543 155.287C139.271 155.558 138.902 155.711 138.517 155.711H41.4042C36.1298 155.711 31.0714 153.623 27.3419 149.907C23.6123 146.191 21.5171 141.151 21.5171 135.896C21.5171 130.64 23.6123 125.6 27.3419 121.884C31.0714 118.168 36.1298 116.081 41.4042 116.081H138.517C138.902 116.081 139.271 116.233 139.544 116.504C139.816 116.775 139.969 117.143 139.969 117.527C139.969 117.911 139.816 118.278 139.544 118.55C139.271 118.821 138.902 118.973 138.517 118.973H41.4042C36.8998 118.973 32.5799 120.756 29.3948 123.93C26.2097 127.103 24.4203 131.408 24.4203 135.896C24.4203 140.384 26.2097 144.688 29.3948 147.862C32.5799 151.035 36.8998 152.818 41.4042 152.818H138.517C138.902 152.818 139.271 152.971 139.543 153.242C139.816 153.513 139.969 153.881 139.969 154.264Z" fill="#19223D"/>
    <path d="M137.646 125.627H36.033C35.956 125.627 35.8822 125.596 35.8277 125.542C35.7733 125.488 35.7427 125.414 35.7427 125.337C35.7427 125.261 35.7733 125.187 35.8277 125.133C35.8822 125.078 35.956 125.048 36.033 125.048H137.646C137.723 125.048 137.797 125.078 137.851 125.133C137.906 125.187 137.936 125.261 137.936 125.337C137.936 125.414 137.906 125.488 137.851 125.542C137.797 125.596 137.723 125.627 137.646 125.627Z" fill="#CCCCCC"/>
    <path d="M137.646 132.569H36.033C35.956 132.569 35.8822 132.539 35.8277 132.484C35.7733 132.43 35.7427 132.356 35.7427 132.28C35.7427 132.203 35.7733 132.129 35.8277 132.075C35.8822 132.021 35.956 131.99 36.033 131.99H137.646C137.723 131.99 137.797 132.021 137.851 132.075C137.906 132.129 137.936 132.203 137.936 132.28C137.936 132.356 137.906 132.43 137.851 132.484C137.797 132.539 137.723 132.569 137.646 132.569Z" fill="#CCCCCC"/>
    <path d="M137.646 139.512H36.033C35.956 139.512 35.8822 139.481 35.8277 139.427C35.7733 139.373 35.7427 139.299 35.7427 139.222C35.7427 139.146 35.7733 139.072 35.8277 139.018C35.8822 138.963 35.956 138.933 36.033 138.933H137.646C137.723 138.933 137.797 138.963 137.851 139.018C137.906 139.072 137.936 139.146 137.936 139.222C137.936 139.299 137.906 139.373 137.851 139.427C137.797 139.481 137.723 139.512 137.646 139.512Z" fill="#CCCCCC"/>
    <path d="M137.646 146.454H36.033C35.956 146.454 35.8822 146.424 35.8277 146.369C35.7733 146.315 35.7427 146.241 35.7427 146.165C35.7427 146.088 35.7733 146.014 35.8277 145.96C35.8822 145.906 35.956 145.875 36.033 145.875H137.646C137.723 145.875 137.797 145.906 137.851 145.96C137.906 146.014 137.936 146.088 137.936 146.165C137.936 146.241 137.906 146.315 137.851 146.369C137.797 146.424 137.723 146.454 137.646 146.454Z" fill="#CCCCCC"/>
    <path d="M210.725 124.027L187.045 153.31L113.415 94.1969C105.026 87.4618 103.512 75.4138 110.04 67.3408C116.569 59.2678 128.706 58.1793 137.095 64.9144L210.725 124.027Z" fill="#F2F2F2"/>
    <path d="M189.036 154.536C188.794 154.835 188.444 155.026 188.061 155.067C187.678 155.108 187.295 154.996 186.995 154.755L111.375 94.045C107.268 90.7477 104.644 85.9599 104.079 80.7347C103.515 75.5096 105.058 70.2752 108.367 66.183C111.676 62.0908 116.481 59.4761 121.725 58.914C126.97 58.3519 132.223 59.8885 136.33 63.1858L211.95 123.896C212.099 124.015 212.222 124.162 212.314 124.329C212.405 124.496 212.463 124.679 212.483 124.868C212.504 125.056 212.486 125.247 212.433 125.43C212.379 125.612 212.29 125.782 212.17 125.93C212.051 126.078 211.903 126.201 211.735 126.292C211.568 126.383 211.384 126.44 211.195 126.461C211.005 126.481 210.813 126.464 210.63 126.41C210.447 126.357 210.277 126.268 210.128 126.148L134.509 65.4383C132.772 64.0429 130.776 63.0022 128.636 62.3754C126.496 61.7487 124.252 61.5482 122.034 61.7856C119.816 62.0229 117.666 62.6933 115.708 63.7585C113.75 64.8237 112.022 66.2629 110.622 67.9938C109.223 69.7246 108.179 71.7133 107.551 73.8462C106.922 75.9791 106.722 78.2144 106.961 80.4245C107.2 82.6345 107.874 84.776 108.944 86.7265C110.014 88.6771 111.459 90.3985 113.196 91.7925L188.816 152.503C189.116 152.743 189.307 153.093 189.349 153.474C189.39 153.855 189.277 154.238 189.036 154.536Z" fill="#CCCCCC"/>
    <path d="M205.26 130.785L126.136 67.2614C126.107 67.2375 126.082 67.2081 126.064 67.1748C126.046 67.1414 126.034 67.1048 126.03 67.0671C126.026 67.0293 126.029 66.9911 126.04 66.9546C126.051 66.9182 126.069 66.8842 126.093 66.8546C126.116 66.825 126.146 66.8005 126.179 66.7822C126.213 66.764 126.25 66.7526 126.288 66.7485C126.326 66.7445 126.364 66.7479 126.4 66.7586C126.437 66.7693 126.471 66.787 126.501 66.8109L205.625 130.334C205.655 130.358 205.679 130.387 205.698 130.421C205.716 130.454 205.727 130.491 205.732 130.528C205.736 130.566 205.732 130.604 205.721 130.641C205.711 130.677 205.693 130.711 205.669 130.741C205.645 130.771 205.615 130.795 205.582 130.814C205.548 130.832 205.512 130.843 205.474 130.847C205.436 130.851 205.397 130.848 205.361 130.837C205.324 130.826 205.29 130.808 205.26 130.785Z" fill="#CCCCCC"/>
    <path d="M200.889 136.191L121.765 72.6674C121.705 72.6192 121.667 72.5493 121.659 72.4731C121.651 72.3969 121.673 72.3205 121.721 72.2608C121.77 72.2012 121.84 72.163 121.916 72.1548C121.993 72.1465 122.069 72.1688 122.129 72.2169L201.253 135.74C201.283 135.764 201.308 135.793 201.326 135.827C201.344 135.86 201.356 135.897 201.36 135.934C201.364 135.972 201.361 136.01 201.35 136.047C201.339 136.083 201.322 136.117 201.298 136.147C201.274 136.177 201.244 136.201 201.211 136.22C201.177 136.238 201.14 136.249 201.102 136.253C201.064 136.257 201.026 136.254 200.989 136.243C200.953 136.232 200.919 136.214 200.889 136.191Z" fill="#CCCCCC"/>
    <path d="M196.517 141.597L117.393 78.0734C117.333 78.0252 117.295 77.9553 117.287 77.8791C117.279 77.8028 117.301 77.7264 117.349 77.6666C117.398 77.6069 117.468 77.5687 117.544 77.5605C117.621 77.5523 117.698 77.5747 117.758 77.6229L196.882 141.146C196.911 141.17 196.936 141.199 196.954 141.233C196.973 141.266 196.984 141.303 196.988 141.34C196.992 141.378 196.989 141.416 196.978 141.453C196.967 141.489 196.949 141.523 196.926 141.553C196.902 141.582 196.872 141.607 196.839 141.625C196.805 141.643 196.768 141.655 196.73 141.659C196.693 141.663 196.654 141.66 196.618 141.649C196.581 141.638 196.547 141.62 196.517 141.597Z" fill="#CCCCCC"/>
    <path d="M192.146 147.003L113.022 83.4794C112.992 83.4555 112.967 83.4261 112.949 83.3928C112.931 83.3594 112.919 83.3228 112.915 83.2851C112.911 83.2473 112.915 83.2091 112.925 83.1727C112.936 83.1362 112.954 83.1022 112.978 83.0726C113.002 83.0431 113.031 83.0185 113.065 83.0003C113.098 82.982 113.135 82.9706 113.173 82.9665C113.211 82.9625 113.249 82.9659 113.286 82.9766C113.322 82.9873 113.356 83.005 113.386 83.0289L192.51 146.552C192.54 146.576 192.564 146.605 192.583 146.639C192.601 146.672 192.613 146.709 192.617 146.746C192.621 146.784 192.617 146.822 192.607 146.859C192.596 146.895 192.578 146.929 192.554 146.959C192.53 146.989 192.501 147.013 192.467 147.031C192.434 147.05 192.397 147.061 192.359 147.065C192.321 147.069 192.283 147.066 192.246 147.055C192.21 147.044 192.175 147.026 192.146 147.003Z" fill="#CCCCCC"/>
    <path d="M215.71 156H0.290323C0.213324 156 0.139479 155.97 0.0850333 155.915C0.0305872 155.861 0 155.787 0 155.711C0 155.634 0.0305872 155.56 0.0850333 155.506C0.139479 155.452 0.213324 155.421 0.290323 155.421H215.71C215.787 155.421 215.861 155.452 215.915 155.506C215.969 155.56 216 155.634 216 155.711C216 155.787 215.969 155.861 215.915 155.915C215.861 155.97 215.787 156 215.71 156Z" fill="#CCCCCC"/>
    <path d="M98.1523 112.996L94.8334 112.995L93.2549 100.24L98.1535 100.24L98.1523 112.996Z" fill="#FFB8B8"/>
    <path d="M92.4629 112.051H98.8638V116.066H88.4326C88.4326 115.539 88.5369 115.017 88.7394 114.53C88.9419 114.042 89.2388 113.6 89.613 113.227C89.9873 112.854 90.4316 112.558 90.9205 112.356C91.4095 112.154 91.9336 112.051 92.4629 112.051Z" fill="#2F2E41"/>
    <path d="M64.2441 112.996L60.9252 112.995L59.3467 100.24L64.2453 100.24L64.2441 112.996Z" fill="#FFB8B8"/>
    <path d="M58.5547 112.051H64.9556V116.066H54.5244C54.5244 115.539 54.6287 115.017 54.8312 114.53C55.0337 114.042 55.3306 113.6 55.7048 113.227C56.0791 112.854 56.5234 112.558 57.0123 112.356C57.5013 112.154 58.0254 112.051 58.5547 112.051Z" fill="#2F2E41"/>
    <path d="M75.3301 18.3783V16.9319C75.3301 14.4577 76.3165 12.0849 78.0724 10.3353C79.8283 8.5858 82.2098 7.60292 84.693 7.60292C87.1762 7.60292 89.5577 8.5858 91.3136 10.3353C93.0694 12.0849 94.0559 14.4577 94.0559 16.9319V18.3783C94.0559 20.162 93.3447 21.8727 92.0789 23.134C90.813 24.3953 89.0961 25.1039 87.3059 25.1039H82.0801C81.1937 25.1039 80.3159 24.9299 79.497 24.5919C78.678 24.2539 77.9339 23.7585 77.3071 23.134C76.6803 22.5095 76.1831 21.768 75.8439 20.9521C75.5047 20.1361 75.3301 19.2615 75.3301 18.3783Z" fill="#2F2E41"/>
    <path d="M84.6931 25.6015C88.6313 25.6015 91.8237 22.4206 91.8237 18.4967C91.8237 14.5729 88.6313 11.3919 84.6931 11.3919C80.755 11.3919 77.5625 14.5729 77.5625 18.4967C77.5625 22.4206 80.755 25.6015 84.6931 25.6015Z" fill="#FFB8B8"/>
    <path d="M45.907 42.915C46.1963 42.6428 46.5421 42.437 46.9199 42.3123C47.2977 42.1876 47.6983 42.147 48.0936 42.1932C48.4889 42.2395 48.8692 42.3715 49.2077 42.5801C49.5462 42.7886 49.8347 43.0686 50.0529 43.4002L56.1655 42.2482L57.7741 45.7786L49.119 47.2847C48.5355 47.613 47.8515 47.7166 47.1964 47.5759C46.5414 47.4352 45.961 47.06 45.565 46.5214C45.1691 45.9828 44.9853 45.3181 45.0483 44.6535C45.1113 43.9888 45.4168 43.3702 45.907 42.915Z" fill="#FFB8B8"/>
    <path d="M79.214 30.1966L69.1904 36.7759L52.2767 42.1573C52.0525 42.2291 51.8602 42.3761 51.7325 42.5732C51.6048 42.7704 51.5497 43.0055 51.5764 43.2387L51.9454 46.4052C51.9618 46.5454 52.0073 46.6806 52.0792 46.8021C52.1511 46.9237 52.2477 47.0289 52.3627 47.1112C52.4778 47.1934 52.6089 47.2507 52.7475 47.2795C52.8861 47.3083 53.0293 47.3079 53.1677 47.2784L69.086 43.8786C69.8564 43.715 70.5848 43.3955 71.2261 42.9398L82.4871 34.9568C82.8954 34.6658 83.2211 34.2746 83.4327 33.821C83.6442 33.3675 83.7344 32.8671 83.6944 32.3686C83.6531 31.8693 83.4821 31.3894 83.1982 30.976C82.9143 30.5627 82.5272 30.23 82.0752 30.0109C81.6231 29.7917 81.1216 29.6936 80.6199 29.7262C80.1182 29.7587 79.6337 29.9209 79.214 30.1966Z" fill="#CCCCCC"/>
    <path d="M94.8928 109.376C94.6381 109.376 94.3888 109.302 94.1755 109.163C93.9622 109.025 93.794 108.827 93.6916 108.595L78.4758 71.1337C78.4402 71.0525 78.3806 70.984 78.3049 70.9375C78.2291 70.8911 78.1409 70.8688 78.0521 70.8738C77.9633 70.8788 77.8781 70.9108 77.8081 70.9654C77.7381 71.0201 77.6865 71.0948 77.6604 71.1795L65.2467 107.649C65.1943 107.819 65.1076 107.976 64.9919 108.111C64.8763 108.246 64.7341 108.356 64.5742 108.435C64.4142 108.513 64.2399 108.558 64.0619 108.567C63.8839 108.575 63.706 108.548 63.5391 108.485L59.3764 106.93C59.1504 106.846 58.9522 106.702 58.8037 106.513C58.6552 106.323 58.5623 106.097 58.5353 105.858C56.6626 89.6034 72.9934 48.5739 73.1586 48.1615L73.2043 48.0472L88.0912 51.3284L88.1222 51.362C94.0615 57.8179 98.9435 98.537 99.8619 106.634C99.8961 106.927 99.8293 107.222 99.6725 107.472C99.5157 107.721 99.2783 107.91 98.9993 108.007L95.3249 109.302C95.1861 109.351 95.04 109.376 94.8928 109.376Z" fill="#2F2E41"/>
    <path d="M82.066 52.649C78.4592 52.649 74.438 51.9325 73.2002 48.9751L73.1717 48.9071L73.2102 48.8441C74.1872 47.2469 75.4785 44.5223 74.7844 44.0109C73.4172 43.0036 72.7538 41.3467 72.8127 39.0859C72.9406 34.1782 76.2967 29.8209 81.1641 28.2433C82.5227 27.8101 83.9053 27.4554 85.305 27.181C86.3254 26.9759 87.3787 26.9984 88.3893 27.2471C89.3999 27.4957 90.3427 27.9643 91.1499 28.6192C91.9673 29.2783 92.6281 30.1096 93.0846 31.0535C93.5412 31.9973 93.7824 33.0302 93.7907 34.0779C93.8417 39.3226 93.0313 46.6274 88.8807 51.6425C88.6862 51.8752 88.4155 52.0321 88.1163 52.0855C86.1194 52.4453 84.0952 52.6339 82.066 52.649Z" fill="#CCCCCC"/>
    <path d="M80.7247 52.4526C80.9209 51.7511 81.3872 51.155 82.0221 50.7941C82.6569 50.4331 83.4091 50.3364 84.1152 50.5249C84.2593 50.565 84.3999 50.6169 84.5355 50.68L89.1768 46.4715L92.4046 48.6382L85.7673 54.4904C85.4676 55.0288 84.9958 55.4519 84.4269 55.6923C83.8581 55.9327 83.2248 55.9767 82.628 55.8172C82.2803 55.7224 81.955 55.5598 81.6708 55.339C81.3865 55.1181 81.149 54.8433 80.972 54.5304C80.7951 54.2176 80.6821 53.8729 80.6396 53.5162C80.5971 53.1596 80.626 52.7981 80.7247 52.4526Z" fill="#FFB8B8"/>
    <path d="M88.4413 52.5061C88.1402 52.5063 87.8483 52.4025 87.6152 52.2124L85.7849 50.7221C85.6323 50.5979 85.5099 50.4409 85.4269 50.2629C85.3438 50.0848 85.3023 49.8904 85.3053 49.6941C85.3084 49.4978 85.356 49.3047 85.4445 49.1293C85.533 48.9539 85.6602 48.8008 85.8166 48.6813L93.4932 42.8149C93.5842 42.745 93.6439 42.6422 93.6593 42.5288C93.6747 42.4154 93.6446 42.3004 93.5755 42.209L88.8373 35.9676C88.2868 35.2449 88.0107 34.3514 88.0579 33.4454C88.105 32.5393 88.4724 31.6791 89.095 31.0169C89.7506 30.3114 90.6486 29.8772 91.6105 29.8005C92.5725 29.7239 93.5283 30.0103 94.2882 30.6031L94.3182 30.6346L99.2658 37.6935C99.8009 38.1115 100.232 38.647 100.525 39.2583C100.818 39.8696 100.965 40.5401 100.955 41.2174C100.944 41.8947 100.777 42.5606 100.466 43.1629C100.155 43.7652 99.7086 44.2878 99.1613 44.6897L89.219 52.2508C88.9939 52.4166 88.7213 52.5061 88.4413 52.5061Z" fill="#CCCCCC"/>
    <path d="M78.377 16.498V12.9729L84.6931 10.2248L90.7157 12.9729V16.498C90.7157 16.6515 90.6545 16.7986 90.5456 16.9071C90.4367 17.0156 90.289 17.0766 90.135 17.0766H78.9576C78.8036 17.0766 78.6559 17.0156 78.547 16.9071C78.4381 16.7986 78.377 16.6515 78.377 16.498Z" fill="#2F2E41"/>
    <path d="M84.403 8.07058C83.4743 5.10887 85.4248 1.71461 88.3081 0.542286C91.1915 -0.630035 94.641 0.189454 97.074 2.12631C99.507 4.06316 101.016 6.9642 101.816 9.96301C102.616 12.9618 102.768 16.0889 102.916 19.1883C106.458 19.8366 108.868 24.0232 107.641 27.3973C106.414 30.7714 101.871 32.4476 98.7344 30.6841C95.5974 28.9205 94.6888 24.1799 96.9528 21.3887C98.0241 20.068 98.6225 18.4289 98.6533 16.731C98.6841 15.0332 98.1455 13.3736 97.1228 12.0152C96.1001 10.6568 94.6518 9.67715 93.0072 9.23148C91.3626 8.7858 89.6158 8.89956 88.0435 9.55472C86.2976 10.2822 84.1069 8.39203 84.403 8.07058Z" fill="#2F2E41"/>
    <path d="M44.5977 29.2404C40.3563 29.2126 36.1679 28.2986 32.3031 26.5574C32.073 26.4552 31.8778 26.2886 31.7411 26.0778C31.6044 25.867 31.5322 25.6212 31.5332 25.3702V14.8356C31.5336 14.4904 31.6714 14.1596 31.9163 13.9155C32.1612 13.6715 32.4933 13.5342 32.8397 13.5338H56.3558C56.7022 13.5342 57.0342 13.6715 57.2792 13.9155C57.5241 14.1596 57.6619 14.4904 57.6622 14.8356V25.3703C57.6633 25.6212 57.5911 25.8671 57.4544 26.0778C57.3177 26.2886 57.1224 26.4553 56.8924 26.5574C53.0276 28.2986 48.8392 29.2126 44.5977 29.2404Z" fill="#19223D"/>
    <path d="M44.5944 20.706C44.4201 20.7062 44.2474 20.6716 44.0867 20.6043L25.4387 12.7652C25.1983 12.6641 24.9937 12.4936 24.8514 12.2755C24.7091 12.0575 24.6356 11.8021 24.6404 11.542C24.6451 11.282 24.728 11.0294 24.8782 10.8167C25.0284 10.6041 25.2391 10.4411 25.4832 10.3489L44.1314 3.3C44.4318 3.18594 44.7639 3.18665 45.0637 3.30198L63.4621 10.3508C63.7047 10.4438 63.914 10.6068 64.0632 10.819C64.2123 11.0311 64.2946 11.2828 64.2994 11.5418C64.3042 11.8008 64.2313 12.0553 64.0901 12.2728C63.9489 12.4903 63.7458 12.6609 63.5068 12.7628L45.1082 20.6018C44.9458 20.6707 44.771 20.7062 44.5944 20.706Z" fill="#19223D"/>
    <path d="M33.7107 27.2742C34.6727 27.2742 35.4526 26.4972 35.4526 25.5386C35.4526 24.58 34.6727 23.803 33.7107 23.803C32.7486 23.803 31.9688 24.58 31.9688 25.5386C31.9688 26.4972 32.7486 27.2742 33.7107 27.2742Z" fill="#3F3D56"/>
    <path opacity="0.2" d="M63.5703 11.65L45.1717 19.4891C45.0282 19.5502 44.8739 19.5819 44.7179 19.5822C44.5619 19.5826 44.4074 19.5517 44.2637 19.4913L25.6157 11.6523C25.3815 11.5562 25.1862 11.3851 25.0605 11.166C24.9782 11.3081 24.9273 11.466 24.911 11.6292C24.8947 11.7924 24.9134 11.9572 24.9659 12.1126C25.0184 12.268 25.1035 12.4105 25.2156 12.5307C25.3276 12.6508 25.464 12.7458 25.6157 12.8094L44.2637 20.6483C44.4074 20.7088 44.5619 20.7397 44.7179 20.7393C44.8739 20.739 45.0282 20.7073 45.1717 20.6461L63.5703 12.8071C63.7212 12.743 63.8568 12.6477 63.9681 12.5275C64.0793 12.4073 64.1637 12.2649 64.2157 12.1098C64.2677 11.9547 64.2861 11.7904 64.2696 11.6277C64.2532 11.465 64.2023 11.3077 64.1203 11.166C63.9955 11.3834 63.8022 11.5535 63.5703 11.65Z" fill="black"/>
    <path d="M33.8567 25.5318C33.9337 25.5318 34.0076 25.5013 34.062 25.4471C34.1165 25.3928 34.1471 25.3193 34.1471 25.2425V15.5631L43.7222 12.0875C43.7992 12.0886 43.8735 12.0592 43.9288 12.0058C43.984 11.9523 44.0157 11.8792 44.0169 11.8025C44.018 11.7258 43.9886 11.6518 43.9349 11.5967C43.8813 11.5416 43.8079 11.5101 43.7309 11.5089L34.1557 14.9846C34.0786 14.9828 34.002 14.9966 33.9305 15.0252C33.859 15.0538 33.794 15.0966 33.7396 15.1509C33.6845 15.2046 33.6409 15.2688 33.6111 15.3396C33.5814 15.4104 33.5662 15.4864 33.5664 15.5631V25.2425C33.5664 25.3193 33.597 25.3928 33.6514 25.4471C33.7059 25.5013 33.7797 25.5318 33.8567 25.5318Z" fill="#3F3D56"/>
  </g>
  <defs>
    <clipPath id="clip0_254_1614">
      <rect width="216" height="156" fill="white"/>
    </clipPath>
  </defs>
</svg>