<svg xmlns="http://www.w3.org/2000/svg" width="216" height="189" viewBox="0 0 216 189" fill="none">
  <g clip-path="url(#clip0_257_2217)">
    <path d="M10.4227 64.4054L0.00770699 58.5406C-0.13278 52.2659 1.2609 46.0517 4.06774 40.4376C6.46896 51.3338 19.1058 56.5178 24.9362 66.0315C26.732 69.0126 27.8337 72.3596 28.1597 75.8243C28.4858 79.289 28.0278 82.7827 26.8197 86.0464L27.5047 94.4945C22.1219 92.8826 17.1526 90.1232 12.9391 86.4064C8.7257 82.6895 5.36832 78.1036 3.09832 72.9646C1.85343 70.069 0.97821 67.0282 0.493326 63.9139C5.34924 64.4306 10.4227 64.4054 10.4227 64.4054Z" fill="#F2F2F2"/>
    <path d="M197.649 171.102L197.968 163.923C201.297 162.144 205.011 161.204 208.786 161.185C203.59 165.432 204.24 173.618 200.717 179.329C199.605 181.102 198.108 182.601 196.337 183.717C194.566 184.833 192.567 185.536 190.487 185.774L186.14 188.435C185.543 185.11 185.675 181.695 186.525 178.426C187.376 175.156 188.925 172.11 191.067 169.497C192.283 168.043 193.677 166.748 195.216 165.642C196.258 168.387 197.649 171.102 197.649 171.102Z" fill="#F2F2F2"/>
    <path d="M186.447 184.741L182.51 184.74L180.637 169.559L186.447 169.559L186.447 184.741Z" fill="#FFB6B6"/>
    <path d="M187.451 188.556L174.757 188.555V188.395C174.757 187.085 175.278 185.829 176.204 184.902C177.131 183.976 178.387 183.455 179.698 183.455L182.017 181.697L186.343 183.456L187.451 183.456L187.451 188.556Z" fill="#2F2E41"/>
    <path d="M168.156 184.741L164.22 184.74L162.347 169.559L168.157 169.559L168.156 184.741Z" fill="#FFB6B6"/>
    <path d="M169.161 188.556L156.467 188.555V188.395C156.467 187.085 156.987 185.829 157.914 184.902C158.841 183.976 160.097 183.455 161.408 183.455L163.727 181.697L168.053 183.456L169.161 183.456L169.161 188.556Z" fill="#2F2E41"/>
    <path d="M166.453 101.742L192.06 102.382C196.923 105.023 196.997 110.739 195.404 117.525C195.404 117.525 195.942 121.559 194.866 122.635C193.79 123.71 193.252 123.71 193.79 125.593C194.328 127.475 191.486 130.549 191.831 130.895C192.176 131.24 192.983 133.122 192.983 133.122L190.293 148.45C190.293 148.45 188.41 175.072 187.872 175.609C187.335 176.147 186.797 175.609 187.335 176.954C187.872 178.298 188.41 177.761 187.872 178.298C187.396 178.812 186.947 179.351 186.528 179.912H180.025C180.025 179.912 179.534 177.223 179.534 176.954C179.534 176.685 178.997 175.072 178.997 174.803C178.997 174.534 179.472 174.058 179.472 174.058C179.636 173.512 179.747 172.95 179.803 172.382C179.803 171.845 181.417 151.139 181.417 151.139L178.19 124.248L170.39 150.601C170.39 150.601 170.39 173.727 169.852 174.265C169.314 174.803 169.314 174.534 169.583 175.609C169.852 176.685 170.928 176.416 170.121 177.223C169.314 178.03 169.045 176.685 169.314 178.03L169.583 179.374L161.514 179.489C161.514 179.489 160.438 177.223 160.976 176.416C161.514 175.609 161.481 175.83 160.825 174.509C160.169 173.189 159.9 172.92 160.169 172.651C160.438 172.382 160.438 170.952 160.438 170.952L161.783 145.223C161.783 145.223 162.052 118.063 162.052 117.256C162.072 116.841 161.995 116.427 161.828 116.047V114.952L162.858 111.072L166.453 101.742Z" fill="#2F2E41"/>
    <path d="M181.835 48.5087C186.229 48.5087 189.791 44.9473 189.791 40.5542C189.791 36.1611 186.229 32.5998 181.835 32.5998C177.441 32.5998 173.879 36.1611 173.879 40.5542C173.879 44.9473 177.441 48.5087 181.835 48.5087Z" fill="#FFB6B6"/>
    <path d="M177.857 53.766C176.143 54.7848 175.118 56.6566 174.529 58.5614C173.44 62.088 172.784 65.7341 172.576 69.4192L171.954 80.4518L164.255 103.943C170.928 109.588 196.01 105.226 196.01 105.226C196.01 105.226 196.78 104.97 196.01 104.2C195.24 103.43 194.491 104.112 195.261 103.342C196.031 102.572 195.5 103.43 195.243 102.66C194.987 101.89 195.243 102.404 195.5 102.147C195.757 101.89 193.513 99.5811 193.513 99.5811L195.566 86.0968L198.133 58.8978C195.053 55.0489 188.859 52.78 188.859 52.78L187.259 49.8999L179.257 50.5399L177.857 53.766Z" fill="#DCD7D7"/>
    <path d="M176.766 35.886C177.073 35.8884 177.38 35.9286 177.678 36.0057C178.265 36.1469 178.862 36.2469 179.464 36.305C181.305 36.4783 183.036 37.2636 184.379 38.5356C185.722 39.8076 186.6 41.4929 186.873 43.3222C187.335 42.9192 188.387 42.178 189.25 42.8669C189.263 42.8778 189.27 42.8835 189.301 42.8691C189.873 42.5975 190.89 39.2546 190.921 36.3111C190.937 34.7489 190.691 32.754 189.427 32.1222L189.36 32.0889L189.343 32.0166C189.259 31.6652 188.315 31.0653 186.676 30.5984C183.696 29.7499 179.255 28.0971 176.754 30.5295C176.565 31.3496 175.949 33.1044 175.327 33.3034C174.638 33.5235 174.043 33.7135 173.949 34.5583C173.871 35.7604 173.877 36.9665 173.966 38.1678C174.2 37.4327 174.658 36.7893 175.276 36.3282C175.716 36.0322 176.236 35.8779 176.766 35.886Z" fill="#2F2E41"/>
    <path d="M161.957 79.8376L174.953 71.5162L168.407 62.8165L161.943 70.7657L141.804 72.0006C141.274 71.4771 140.604 71.119 139.874 70.9699C139.144 70.8209 138.387 70.8873 137.694 71.1612C137.002 71.4351 136.404 71.9045 135.973 72.5122C135.543 73.12 135.299 73.8398 135.27 74.5839C135.242 75.3281 135.431 76.0643 135.814 76.703C136.197 77.3416 136.758 77.8551 137.428 78.1807C138.097 78.5063 138.848 78.63 139.586 78.5367C140.325 78.4435 141.021 78.1372 141.589 77.6554L161.957 79.8376Z" fill="#FFB6B6"/>
    <path d="M187.016 59.9011C187.771 64.465 173.526 73.1802 173.526 73.1802C173.526 72.109 165.024 80.196 164.64 79.3076C163.55 76.7826 162.783 70.802 161.259 69.8447C160.387 69.2973 166.508 64.1546 166.508 64.1546C166.508 64.1546 169.712 60.9277 173.916 56.8573C175.084 55.6845 176.529 54.8261 178.117 54.3619C179.706 53.8977 181.386 53.8428 183.001 54.2024C183.001 54.2024 186.262 55.3371 187.016 59.9011Z" fill="#DCD7D7"/>
    <path d="M213.804 82.0219L205.208 69.2074L196.646 75.9346L204.733 82.2271L206.394 102.331C205.882 102.872 205.538 103.55 205.404 104.282C205.271 105.015 205.353 105.771 205.642 106.457C205.93 107.144 206.412 107.731 207.029 108.149C207.646 108.566 208.371 108.795 209.116 108.807C209.86 108.82 210.593 108.615 211.223 108.219C211.854 107.823 212.355 107.251 212.667 106.575C212.978 105.899 213.086 105.146 212.977 104.409C212.868 103.673 212.547 102.984 212.053 102.426L213.804 82.0219Z" fill="#FFB6B6"/>
    <path d="M193.336 57.3963C197.884 56.5457 206.901 70.5993 206.901 70.5993C205.83 70.6222 214.097 78.949 213.217 79.3514C210.715 80.495 204.75 81.3881 203.825 82.9318C203.296 83.8145 198.024 77.8054 198.024 77.8054C198.024 77.8054 194.729 74.6713 190.57 70.5549C189.372 69.4129 188.483 67.9866 187.986 66.4087C187.488 64.8309 187.397 63.1527 187.723 61.5305C187.723 61.5305 188.788 58.2469 193.336 57.3963Z" fill="#DCD7D7"/>
    <path d="M216 188.619C216 188.669 215.991 188.719 215.972 188.765C215.952 188.811 215.924 188.853 215.889 188.889C215.854 188.924 215.812 188.952 215.765 188.971C215.719 188.99 215.669 189 215.619 189H125.902C125.801 189 125.704 188.96 125.633 188.888C125.562 188.817 125.521 188.72 125.521 188.619C125.521 188.518 125.562 188.421 125.633 188.35C125.704 188.278 125.801 188.238 125.902 188.238H215.619C215.669 188.238 215.719 188.248 215.765 188.267C215.812 188.286 215.854 188.314 215.889 188.35C215.924 188.385 215.952 188.427 215.972 188.473C215.991 188.52 216 188.569 216 188.619Z" fill="#CCCCCC"/>
    <path d="M132.888 73.2167H24.0043C22.3031 73.2187 20.6722 73.8951 19.4693 75.0977C18.2664 76.3004 17.5898 77.9309 17.5879 79.6317V147.407C17.5898 149.108 18.2664 150.738 19.4693 151.941C20.6722 153.143 22.3031 153.82 24.0043 153.822H132.888C134.589 153.82 136.22 153.143 137.423 151.941C138.626 150.738 139.302 149.108 139.304 147.407V79.6317C139.302 77.9309 138.626 76.3003 137.423 75.0977C136.22 73.8951 134.589 73.2186 132.888 73.2167Z" fill="#19223D"/>
    <path d="M132.888 73.2167H24.0043C22.3031 73.2187 20.6722 73.8951 19.4693 75.0977C18.2664 76.3004 17.5898 77.9309 17.5879 79.6317V147.407C17.5898 149.108 18.2664 150.738 19.4693 151.941C20.6722 153.143 22.3031 153.82 24.0043 153.822H132.888C134.589 153.82 136.22 153.143 137.423 151.941C138.626 150.738 139.302 149.108 139.304 147.407V79.6317C139.302 77.9309 138.626 76.3003 137.423 75.0977C136.22 73.8951 134.589 73.2186 132.888 73.2167ZM134.994 121.901C134.968 128.8 132.238 135.415 127.39 140.326C122.541 145.237 115.961 148.052 109.061 148.169C98.0125 148.312 115.174 148.368 101.849 148.368C71.3788 148.368 39.6072 148.077 27.7529 147.889C26.1932 147.856 24.7079 147.216 23.6141 146.104C22.5203 144.992 21.9046 143.496 21.8986 141.937V79.6367C21.8992 79.0782 22.1211 78.5427 22.5156 78.1472C22.9101 77.7518 23.4452 77.5287 24.0038 77.5267H132.884C133.442 77.5274 133.978 77.7491 134.373 78.1435C134.768 78.5378 134.992 79.0727 134.994 79.6311V121.901Z" fill="#3F3D56"/>
    <path d="M119.484 34.1896H36.5257C35.7917 34.1907 35.0759 34.4182 34.4761 34.8411C33.8762 35.264 33.4215 35.8617 33.1741 36.5525L20.3618 72.4901C20.1706 73.0265 20.1109 73.6009 20.1879 74.1652C20.2649 74.7294 20.4762 75.2669 20.8042 75.7325C21.1321 76.1981 21.567 76.5782 22.0724 76.8409C22.5778 77.1035 23.1388 77.2411 23.7084 77.2419L134.969 77.4393H134.974C135.562 77.4393 136.142 77.2931 136.66 77.014C137.179 76.735 137.62 76.3316 137.944 75.8402C138.268 75.3487 138.465 74.7845 138.518 74.1982C138.57 73.6118 138.476 73.0217 138.244 72.4806L122.754 36.3456C122.48 35.7054 122.024 35.1598 121.443 34.7764C120.861 34.3931 120.18 34.1891 119.484 34.1896Z" fill="#3F3D56"/>
    <path d="M138.532 73.261C138.532 73.7429 138.434 74.2197 138.244 74.6627L122.755 102.478C122.48 103.117 122.023 103.661 121.442 104.044C120.861 104.427 120.18 104.631 119.484 104.632H36.5274C35.7931 104.631 35.077 104.404 34.4766 103.981C33.8763 103.559 33.421 102.961 33.1729 102.27L20.363 74.6531C20.206 74.2131 20.1373 73.7465 20.1607 73.2799C20.1842 72.8134 20.2994 72.356 20.4998 71.934C20.7001 71.512 20.9817 71.1335 21.3284 70.8204C21.6751 70.5072 22.0802 70.2655 22.5204 70.1089C22.9012 69.9714 23.303 69.901 23.7079 69.9009L37.2988 69.8753L42.8459 69.8657L115.838 69.7377L121.389 69.7281L134.97 69.7025H134.973C135.917 69.7026 136.822 70.0776 137.49 70.7449C138.157 71.4123 138.532 72.3173 138.532 73.261Z" fill="#3F3D56"/>
    <path d="M32.1671 124.056C33.8121 124.056 56.4021 125.436 56.4021 127.081C56.4021 128.726 33.8121 130.012 32.1671 130.012C31.3771 130.012 30.6195 129.698 30.0609 129.14C29.5023 128.581 29.1885 127.824 29.1885 127.034C29.1885 126.244 29.5023 125.487 30.0609 124.928C30.6195 124.37 31.3771 124.056 32.1671 124.056Z" fill="#3F3D56"/>
    <path d="M114.318 12.3271H44.3695C42.4949 12.3293 40.6977 13.0748 39.3722 14.4C38.0466 15.7253 37.301 17.5221 37.2988 19.3962V104.632H119.484C120.159 104.634 120.82 104.442 121.389 104.078V19.3962C121.386 17.5221 120.641 15.7253 119.315 14.4C117.99 13.0748 116.193 12.3293 114.318 12.3271Z" fill="#E6E6E6"/>
    <path d="M87.6194 18.0586H49.2858C47.5789 18.0602 45.9422 18.7387 44.7349 19.9451C43.5276 21.1516 42.8482 22.7875 42.8457 24.4941V104.632H115.838V46.271C115.83 38.7913 112.854 31.6203 107.564 26.3313C102.273 21.0423 95.1008 18.0672 87.6194 18.0586Z" fill="white"/>
    <path d="M103.403 97.5149H55.2813C54.8653 97.5149 54.4664 97.6801 54.1723 97.9742C53.8781 98.2683 53.7129 98.6671 53.7129 99.083C53.7129 99.4989 53.8781 99.8977 54.1723 100.192C54.4664 100.486 54.8653 100.651 55.2813 100.651H103.403C103.819 100.651 104.218 100.486 104.512 100.192C104.806 99.8977 104.971 99.4989 104.971 99.083C104.971 98.6671 104.806 98.2683 104.512 97.9742C104.218 97.6801 103.819 97.5149 103.403 97.5149Z" fill="#E4E4E4"/>
    <path d="M103.403 91.313H55.281C54.8646 91.313 54.4652 91.4784 54.1708 91.7728C53.8764 92.0672 53.7109 92.4664 53.7109 92.8827C53.7109 93.299 53.8764 93.6983 54.1708 93.9926C54.4652 94.287 54.8646 94.4524 55.281 94.4524H103.403C103.819 94.4524 104.218 94.287 104.513 93.9926C104.807 93.6983 104.973 93.299 104.973 92.8827C104.973 92.4664 104.807 92.0672 104.513 91.7728C104.218 91.4784 103.819 91.313 103.403 91.313Z" fill="#E4E4E4"/>
    <path d="M76.1413 85.1144H55.2813C54.8653 85.1144 54.4664 85.2796 54.1723 85.5736C53.8781 85.8677 53.7129 86.2666 53.7129 86.6824C53.7129 87.0983 53.8781 87.4972 54.1723 87.7912C54.4664 88.0853 54.8653 88.2505 55.2813 88.2505H76.1413C76.5573 88.2505 76.9562 88.0853 77.2504 87.7912C77.5445 87.4972 77.7098 87.0983 77.7098 86.6824C77.7098 86.2666 77.5445 85.8677 77.2504 85.5736C76.9562 85.2796 76.5573 85.1144 76.1413 85.1144Z" fill="#E4E4E4"/>
    <path d="M103.403 72.1282H55.281C54.8646 72.1282 54.4652 72.2936 54.1708 72.5879C53.8764 72.8823 53.7109 73.2815 53.7109 73.6978C53.7109 74.1141 53.8764 74.5134 54.1708 74.8078C54.4652 75.1021 54.8646 75.2675 55.281 75.2675H103.403C103.819 75.2675 104.218 75.1021 104.513 74.8078C104.807 74.5134 104.973 74.1141 104.973 73.6978C104.973 73.2815 104.807 72.8823 104.513 72.5879C104.218 72.2936 103.819 72.1282 103.403 72.1282Z" fill="#E4E4E4"/>
    <path d="M103.403 65.9295H55.2813C54.8653 65.9295 54.4664 66.0947 54.1723 66.3888C53.8781 66.6829 53.7129 67.0817 53.7129 67.4976C53.7129 67.9135 53.8781 68.3123 54.1723 68.6064C54.4664 68.9004 54.8653 69.0656 55.2813 69.0656H103.403C103.819 69.0656 104.218 68.9004 104.512 68.6064C104.806 68.3123 104.971 67.9135 104.971 67.4976C104.971 67.0817 104.806 66.6829 104.512 66.3888C104.218 66.0947 103.819 65.9295 103.403 65.9295Z" fill="#E4E4E4"/>
    <path d="M76.141 59.7276H55.281C54.8646 59.7276 54.4652 59.893 54.1708 60.1874C53.8764 60.4817 53.7109 60.881 53.7109 61.2973C53.7109 61.7136 53.8764 62.1129 54.1708 62.4072C54.4652 62.7016 54.8646 62.867 55.281 62.867H76.141C76.5574 62.867 76.9567 62.7016 77.2512 62.4072C77.5456 62.1129 77.711 61.7136 77.711 61.2973C77.711 60.881 77.5456 60.4817 77.2512 60.1874C76.9567 59.893 76.5574 59.7276 76.141 59.7276Z" fill="#E4E4E4"/>
    <path d="M103.403 46.7415H55.281C54.8646 46.7415 54.4652 46.9068 54.1708 47.2012C53.8764 47.4956 53.7109 47.8948 53.7109 48.3111C53.7109 48.7274 53.8764 49.1267 54.1708 49.421C54.4652 49.7154 54.8646 49.8808 55.281 49.8808H103.403C103.819 49.8808 104.218 49.7154 104.513 49.421C104.807 49.1267 104.973 48.7274 104.973 48.3111C104.973 47.8948 104.807 47.4956 104.513 47.2012C104.218 46.9068 103.819 46.7415 103.403 46.7415Z" fill="#19223D"/>
    <path d="M103.403 40.5428H55.281C54.8646 40.5428 54.4652 40.7081 54.1708 41.0025C53.8764 41.2969 53.7109 41.6961 53.7109 42.1124C53.7109 42.5287 53.8764 42.928 54.1708 43.2224C54.4652 43.5167 54.8646 43.6821 55.281 43.6821H103.403C103.819 43.6821 104.218 43.5167 104.513 43.2224C104.807 42.928 104.973 42.5287 104.973 42.1124C104.973 41.6961 104.807 41.2969 104.513 41.0025C104.218 40.7081 103.819 40.5428 103.403 40.5428Z" fill="#19223D"/>
    <path d="M76.141 34.3409H55.281C54.8646 34.3409 54.4652 34.5063 54.1708 34.8006C53.8764 35.095 53.7109 35.4943 53.7109 35.9106C53.7109 36.3269 53.8764 36.7261 54.1708 37.0205C54.4652 37.3149 54.8646 37.4802 55.281 37.4802H76.141C76.5574 37.4802 76.9567 37.3149 77.2512 37.0205C77.5456 36.7261 77.711 36.3269 77.711 35.9106C77.711 35.4943 77.5456 35.095 77.2512 34.8006C76.9567 34.5063 76.5574 34.3409 76.141 34.3409Z" fill="#19223D"/>
    <path d="M118.766 24.4253C125.513 24.4253 130.982 18.9575 130.982 12.2126C130.982 5.46779 125.513 0 118.766 0C112.02 0 106.551 5.46779 106.551 12.2126C106.551 18.9575 112.02 24.4253 118.766 24.4253Z" fill="#19223D"/>
    <path d="M117.1 18.5688C116.889 18.5688 116.681 18.5196 116.492 18.4253C116.303 18.331 116.139 18.194 116.013 18.0253L112.68 13.5828C112.573 13.4401 112.494 13.2776 112.449 13.1046C112.405 12.9315 112.395 12.7514 112.42 12.5744C112.445 12.3975 112.504 12.2272 112.595 12.0734C112.686 11.9196 112.807 11.7852 112.95 11.678C113.093 11.5707 113.256 11.4928 113.429 11.4486C113.602 11.4043 113.782 11.3947 113.959 11.4202C114.136 11.4457 114.306 11.5059 114.46 11.5973C114.613 11.6887 114.747 11.8094 114.854 11.9527L117.035 14.8589L122.634 6.46126C122.834 6.16147 123.145 5.95336 123.498 5.88269C123.852 5.81203 124.219 5.88462 124.519 6.08448C124.818 6.28433 125.027 6.5951 125.097 6.9484C125.168 7.3017 125.095 7.66861 124.895 7.96839L118.23 17.9638C118.11 18.1446 117.948 18.2938 117.758 18.399C117.567 18.5042 117.355 18.5622 117.138 18.5683C117.125 18.5685 117.112 18.5688 117.1 18.5688Z" fill="white"/>
  </g>
  <defs>
    <clipPath id="clip0_257_2217">
      <rect width="216" height="189" fill="white"/>
    </clipPath>
  </defs>
</svg>