<svg width="24" height="25" viewBox="0 0 24 25" fill="none" xmlns="http://www.w3.org/2000/svg">
<g id="g10">
<g id="g12">
<path id="path14" d="M24 12.5042C24 5.87676 18.6274 0.504179 12 0.504179C5.37258 0.504179 0 5.87676 0 12.5042C0 18.4937 4.38823 23.4582 10.125 24.3584V15.9729H7.07813V12.5042H10.125V9.86043C10.125 6.85293 11.9165 5.19168 14.6576 5.19168C15.9705 5.19168 17.3438 5.42605 17.3438 5.42605V8.37918H15.8306C14.3399 8.37918 13.875 9.30419 13.875 10.2532V12.5042H17.2031L16.6711 15.9729H13.875V24.3584C19.6118 23.4582 24 18.4937 24 12.5042Z" fill="#FBFFFE"/>
<path id="path16" d="M16.6711 15.9731L17.2031 12.5044H13.875V10.2534C13.875 9.3044 14.3399 8.37939 15.8306 8.37939H17.3438V5.42627C17.3438 5.42627 15.9705 5.19189 14.6576 5.19189C11.9165 5.19189 10.125 6.85314 10.125 9.86064V12.5044H7.07812V15.9731H10.125V24.3586C10.7359 24.4545 11.3621 24.5044 12 24.5044C12.6379 24.5044 13.2641 24.4545 13.875 24.3586V15.9731H16.6711Z" fill="#101425"/>
</g>
</g>
</svg>
