<svg width="24" height="25" viewBox="0 0 24 25" fill="none" xmlns="http://www.w3.org/2000/svg">
<path id="Vector" d="M7.03017 0.58832C5.75336 0.64856 4.88143 0.852321 4.11918 1.15184C3.33029 1.45928 2.66165 1.87184 1.99636 2.53953C1.33107 3.20721 0.921389 3.87633 0.616106 4.66641C0.320663 5.43034 0.120501 6.30298 0.0641001 7.5805C0.00769954 8.85803 -0.00478059 9.26867 0.00145947 12.5274C0.00769954 15.7861 0.0220997 16.1946 0.0840203 17.4748C0.144981 18.7513 0.348023 19.623 0.647546 20.3855C0.955469 21.1744 1.36755 21.8428 2.03548 22.5083C2.70341 23.1738 3.37205 23.5826 4.16406 23.8883C4.92727 24.1833 5.80016 24.3844 7.07745 24.4403C8.35474 24.4962 8.76587 24.5092 12.0237 24.503C15.2815 24.4967 15.6916 24.4823 16.9715 24.4216C18.2515 24.3609 19.1186 24.1564 19.8813 23.8583C20.6702 23.5497 21.3391 23.1383 22.0042 22.4702C22.6692 21.802 23.0787 21.1324 23.3837 20.3418C23.6794 19.5786 23.8803 18.7057 23.9357 17.4294C23.9916 16.1485 24.0048 15.7396 23.9986 12.4813C23.9923 9.22307 23.9777 8.81459 23.917 7.5349C23.8563 6.25522 23.653 5.38618 23.3537 4.62321C23.0453 3.83433 22.6337 3.16641 21.966 2.50041C21.2983 1.8344 20.6282 1.4252 19.8379 1.12088C19.0742 0.825441 18.2018 0.62408 16.9245 0.56888C15.6472 0.51368 15.2361 0.49952 11.9771 0.50576C8.71811 0.512 8.3101 0.52592 7.03017 0.58832ZM7.17033 22.2815C6.00032 22.2306 5.36503 22.0362 4.94167 21.8735C4.38102 21.6575 3.98166 21.3964 3.55974 20.9786C3.13781 20.5607 2.87861 20.1599 2.65973 19.6005C2.49532 19.1771 2.29732 18.5425 2.2426 17.3725C2.18308 16.108 2.1706 15.7283 2.16364 12.5245C2.15668 9.32075 2.16892 8.94155 2.22436 7.6765C2.27428 6.50746 2.46988 5.87146 2.63237 5.44834C2.84837 4.88698 3.10853 4.48833 3.52734 4.06665C3.94614 3.64497 4.34574 3.38529 4.90567 3.16641C5.32855 3.00129 5.96312 2.80497 7.13265 2.74929C8.39818 2.68929 8.77739 2.67729 11.9807 2.67033C15.184 2.66337 15.5642 2.67537 16.8302 2.73105C17.9992 2.78193 18.6355 2.97561 19.0581 3.13905C19.619 3.35505 20.0181 3.61449 20.4398 4.03401C20.8615 4.45353 21.1214 4.8517 21.3403 5.41282C21.5057 5.8345 21.702 6.46882 21.7572 7.63906C21.8174 8.90459 21.8311 9.28403 21.8369 12.4871C21.8426 15.6901 21.8314 16.0705 21.7759 17.3351C21.7248 18.5051 21.5309 19.1406 21.3679 19.5645C21.1519 20.1249 20.8915 20.5245 20.4725 20.9459C20.0534 21.3674 19.6543 21.627 19.0941 21.8459C18.6717 22.0108 18.0364 22.2076 16.8679 22.2633C15.6023 22.3228 15.2231 22.3353 12.0186 22.3422C8.81411 22.3492 8.4361 22.3362 7.17057 22.2815M16.9531 6.09082C16.9535 6.37565 17.0385 6.65393 17.1971 6.89049C17.3558 7.12704 17.581 7.31123 17.8443 7.41977C18.1077 7.52831 18.3973 7.55631 18.6765 7.50025C18.9558 7.44418 19.2122 7.30656 19.4132 7.10479C19.6142 6.90301 19.7509 6.64616 19.806 6.3667C19.861 6.08724 19.8319 5.79774 19.7224 5.5348C19.6129 5.27187 19.4279 5.04731 19.1908 4.88953C18.9536 4.73176 18.675 4.64785 18.3902 4.64841C18.0084 4.64918 17.6425 4.80156 17.373 5.07205C17.1035 5.34254 16.9524 5.70899 16.9531 6.09082ZM5.83856 12.5164C5.84528 15.9196 8.60915 18.6721 12.0117 18.6657C15.4142 18.6592 18.1687 15.8956 18.1622 12.4924C18.1557 9.08915 15.3911 6.33586 11.9881 6.34258C8.58515 6.3493 5.83208 9.11363 5.83856 12.5164ZM8.00002 12.512C7.99846 11.7209 8.23153 10.9471 8.66976 10.2884C9.108 9.6297 9.73172 9.11576 10.462 8.81156C11.1924 8.50736 11.9965 8.42655 12.7727 8.57936C13.549 8.73217 14.2625 9.11173 14.823 9.67004C15.3836 10.2284 15.766 10.9403 15.9218 11.716C16.0777 12.4916 16.0001 13.2961 15.6988 14.0276C15.3975 14.7591 14.886 15.3848 14.2291 15.8257C13.5721 16.2665 12.7992 16.5026 12.0081 16.5042C11.4827 16.5053 10.9623 16.4029 10.4766 16.2029C9.99086 16.0028 9.54928 15.7091 9.17709 15.3384C8.80489 14.9676 8.50938 14.5272 8.30741 14.0423C8.10545 13.5573 8.001 13.0374 8.00002 12.512Z" fill="#FBFFFE"/>
</svg>
