<svg width="24" height="25" viewBox="0 0 24 25" fill="none" xmlns="http://www.w3.org/2000/svg">
<g id="linkedin_symbol.svg" clip-path="url(#clip0_181_427)">
<path id="Path 2520" d="M20.4222 20.7257H16.8707V15.2188C16.8707 13.9056 16.8471 12.2151 15.0236 12.2151C13.1739 12.2151 12.8909 13.6459 12.8909 15.1232V20.7253H9.33942V9.40084H12.7488V10.9485H12.7965C13.1377 10.3708 13.6308 9.89562 14.2232 9.57349C14.8155 9.25135 15.4851 9.09434 16.1604 9.11916C19.76 9.11916 20.4236 11.4635 20.4236 14.5133L20.4222 20.7257ZM5.33222 7.85286C4.9246 7.85294 4.52611 7.73333 4.18715 7.50916C3.84819 7.28499 3.58399 6.96633 3.42794 6.59347C3.27188 6.22062 3.23098 5.81032 3.31043 5.41446C3.38988 5.0186 3.58611 4.65496 3.87429 4.36952C4.16246 4.08407 4.52965 3.88966 4.92943 3.81085C5.3292 3.73204 5.74358 3.77237 6.1202 3.92676C6.49682 4.08114 6.81874 4.34264 7.04526 4.67818C7.27178 5.01373 7.39273 5.40825 7.3928 5.81185C7.39285 6.07983 7.33958 6.3452 7.23606 6.5928C7.13253 6.8404 6.98078 7.06539 6.78943 7.25491C6.59809 7.44444 6.3709 7.59479 6.12088 7.69739C5.87085 7.79998 5.60287 7.85281 5.33222 7.85286ZM7.10794 20.7257H3.5528V9.40084H7.10794V20.7257ZM22.1927 0.506011H1.76821C1.30463 0.500831 0.857916 0.678097 0.526268 0.998854C0.194621 1.31961 0.00516944 1.75762 -0.000488281 2.21663V22.5239C0.0049758 22.9831 0.194316 23.4214 0.525952 23.7425C0.857589 24.0636 1.3044 24.2412 1.76821 24.2363H22.1927C22.6574 24.2421 23.1055 24.065 23.4384 23.7439C23.7714 23.4228 23.962 22.984 23.9684 22.5239V2.21516C23.9618 1.75524 23.7711 1.31674 23.4381 0.995988C23.1051 0.675239 22.6572 0.49848 22.1927 0.504546" fill="#FBFFFE"/>
</g>
<defs>
<clipPath id="clip0_181_427">
<rect width="24" height="24" fill="white" transform="translate(0 0.504395)"/>
</clipPath>
</defs>
</svg>
