<svg width="24" height="24" viewBox="0 0 24 24" fill="none" xmlns="http://www.w3.org/2000/svg">
<g id="linkedin_symbol.svg" clip-path="url(#clip0_181_495)">
<path id="Path 2520" d="M20.4222 20.2211H16.8707V14.7142C16.8707 13.401 16.8471 11.7105 15.0236 11.7105C13.1739 11.7105 12.8909 13.1413 12.8909 14.6186V20.2208H9.33942V8.89626H12.7488V10.4439H12.7965C13.1377 9.86624 13.6308 9.39105 14.2232 9.06891C14.8155 8.74677 15.4851 8.58976 16.1604 8.61458C19.76 8.61458 20.4236 10.9589 20.4236 14.0087L20.4222 20.2211ZM5.33222 7.34829C4.9246 7.34836 4.52611 7.22875 4.18715 7.00458C3.84819 6.78041 3.58399 6.46175 3.42794 6.0889C3.27188 5.71604 3.23098 5.30575 3.31043 4.90988C3.38988 4.51402 3.58611 4.15038 3.87429 3.86494C4.16246 3.5795 4.52965 3.38508 4.92943 3.30627C5.3292 3.22746 5.74358 3.2678 6.1202 3.42218C6.49682 3.57657 6.81874 3.83806 7.04526 4.17361C7.27178 4.50915 7.39273 4.90367 7.3928 5.30727C7.39285 5.57525 7.33958 5.84062 7.23606 6.08822C7.13253 6.33582 6.98078 6.56081 6.78943 6.75033C6.59809 6.93986 6.3709 7.09021 6.12088 7.19281C5.87085 7.2954 5.60287 7.34824 5.33222 7.34829ZM7.10794 20.2211H3.5528V8.89626H7.10794V20.2211ZM22.1927 0.0014338H1.76821C1.30463 -0.00374616 0.857916 0.173519 0.526268 0.494276C0.194621 0.815034 0.00516944 1.25304 -0.000488281 1.71205V22.0193C0.0049758 22.4785 0.194316 22.9168 0.525952 23.2379C0.857589 23.559 1.3044 23.7366 1.76821 23.7317H22.1927C22.6574 23.7375 23.1055 23.5604 23.4384 23.2393C23.7714 22.9182 23.962 22.4794 23.9684 22.0193V1.71058C23.9618 1.25066 23.7711 0.81216 23.4381 0.49141C23.1051 0.170661 22.6572 -0.00609775 22.1927 -3.19899e-05" fill="#19223D"/>
</g>
<defs>
<clipPath id="clip0_181_495">
<rect width="24" height="24" fill="white"/>
</clipPath>
</defs>
</svg>
