<svg width="57" height="57" viewBox="0 0 57 57" fill="none" xmlns="http://www.w3.org/2000/svg">
<g id="guidance:conference-room" clip-path="url(#clip0_181_472)">
<path id="Vector" d="M14.5 34.3333H4V4H53V34.3333H42.5M41.3333 56.5C41.3332 51.9233 42.603 47.4363 45.0013 43.5383L46 41.9167V41.3333H11V41.9167L11.9987 43.5383C14.397 47.4363 15.6668 51.9233 15.6667 56.5M37.8333 35.5V27.3333C37.8333 27.3333 34.3333 25 28.5 25C22.6667 25 19.1667 27.3333 19.1667 27.3333V35.5M28.15 20.3333C28.15 20.3333 24.4167 18 24.4167 15.0833C24.4167 14.0016 24.8464 12.9642 25.6113 12.1993C26.3762 11.4344 27.4136 11.0047 28.4953 11.0047C29.5771 11.0047 30.6145 11.4344 31.3794 12.1993C32.1443 12.9642 32.574 14.0016 32.574 15.0833C32.574 18 28.85 20.3333 28.85 20.3333H28.15Z" stroke="#FBFFFE" stroke-width="4"/>
</g>
<defs>
<clipPath id="clip0_181_472">
<rect width="56" height="56" fill="white" transform="translate(0.5 0.5)"/>
</clipPath>
</defs>
</svg>
