<svg width="57" height="57" viewBox="0 0 57 57" fill="none" xmlns="http://www.w3.org/2000/svg">
<g id="gravity-ui:persons" clip-path="url(#clip0_181_478)">
<path id="Vector" fillRule="evenodd" clipRule="evenodd" d="M19.75 21.5C21.1424 21.5 22.4777 20.9469 23.4623 19.9623C24.4469 18.9777 25 17.6424 25 16.25C25 14.8576 24.4469 13.5223 23.4623 12.5377C22.4777 11.5531 21.1424 11 19.75 11C18.3576 11 17.0223 11.5531 16.0377 12.5377C15.0531 13.5223 14.5 14.8576 14.5 16.25C14.5 17.6424 15.0531 18.9777 16.0377 19.9623C17.0223 20.9469 18.3576 21.5 19.75 21.5ZM19.75 26.75C22.5348 26.75 25.2055 25.6438 27.1746 23.6746C29.1438 21.7055 30.25 19.0348 30.25 16.25C30.25 13.4652 29.1438 10.7945 27.1746 8.82538C25.2055 6.85625 22.5348 5.75 19.75 5.75C16.9652 5.75 14.2945 6.85625 12.3254 8.82538C10.3562 10.7945 9.25 13.4652 9.25 16.25C9.25 19.0348 10.3562 21.7055 12.3254 23.6746C14.2945 25.6438 16.9652 26.75 19.75 26.75ZM9.1485 36.851C6.429 38.741 5.75 40.5715 5.75 41.422C5.75 42.983 7.017 44.25 8.578 44.25H30.922C31.672 44.25 32.3913 43.952 32.9217 43.4217C33.452 42.8913 33.75 42.172 33.75 41.422C33.75 40.568 33.071 38.7375 30.3515 36.851C27.772 35.0625 24.0165 33.75 19.75 33.75C15.487 33.75 11.728 35.0625 9.1485 36.851ZM0.5 41.422C0.5 34.961 9.1625 28.5 19.75 28.5C23.88 28.5 27.723 29.4835 30.8695 31.069C33.8827 29.3658 37.2888 28.4802 40.75 28.5C49.4125 28.5 56.5 33.883 56.5 39.2695C56.5 41.0545 55.7909 42.7665 54.5287 44.0287C53.2665 45.2909 51.5545 46 49.7695 46H37.579C36.123 48.114 33.6835 49.5 30.922 49.5H8.578C6.43558 49.5 4.38091 48.6489 2.86599 47.134C1.35107 45.6191 0.5 43.5644 0.5 41.422ZM38.9685 40.75H49.7695C50.5885 40.75 51.25 40.085 51.25 39.2695C51.25 38.909 50.914 37.6175 48.842 36.1545C46.903 34.779 44.0295 33.75 40.75 33.75C38.9405 33.75 37.2535 34.065 35.78 34.576C37.621 36.445 38.769 38.587 38.9685 40.75ZM44.25 18C44.25 18.9283 43.8812 19.8185 43.2249 20.4749C42.5685 21.1313 41.6783 21.5 40.75 21.5C39.8217 21.5 38.9315 21.1313 38.2751 20.4749C37.6188 19.8185 37.25 18.9283 37.25 18C37.25 17.0717 37.6188 16.1815 38.2751 15.5251C38.9315 14.8687 39.8217 14.5 40.75 14.5C41.6783 14.5 42.5685 14.8687 43.2249 15.5251C43.8812 16.1815 44.25 17.0717 44.25 18ZM49.5 18C49.5 20.3206 48.5781 22.5462 46.9372 24.1872C45.2962 25.8281 43.0706 26.75 40.75 26.75C38.4294 26.75 36.2038 25.8281 34.5628 24.1872C32.9219 22.5462 32 20.3206 32 18C32 15.6794 32.9219 13.4538 34.5628 11.8128C36.2038 10.1719 38.4294 9.25 40.75 9.25C43.0706 9.25 45.2962 10.1719 46.9372 11.8128C48.5781 13.4538 49.5 15.6794 49.5 18Z" fill="#FBFFFE"/>
</g>
<defs>
<clipPath id="clip0_181_478">
<rect width="56" height="56" fill="white" transform="translate(0.5 0.5)"/>
</clipPath>
</defs>
</svg>
