<svg width="57" height="57" viewBox="0 0 57 57" fill="none" xmlns="http://www.w3.org/2000/svg">
<g id="workspace_premium">
<mask id="mask0_181_465" style="mask-type:alpha" maskUnits="userSpaceOnUse" x="0" y="0" width="57" height="57">
<rect id="Bounding box" x="0.5" y="0.5" width="56" height="56" fill="#D9D9D9"/>
</mask>
<g mask="url(#mask0_181_465)">
<path id="workspace_premium_2" d="M23.075 32.4667L25.1167 25.8167L19.75 21.5H26.4L28.5 14.9667L30.6 21.5H37.25L31.825 25.8167L33.8667 32.4667L28.5 28.325L23.075 32.4667ZM14.5 54.1667V36.1417C13.0223 34.5084 11.875 32.6417 11.0584 30.5417C10.2417 28.4417 9.83337 26.2056 9.83337 23.8334C9.83337 18.6222 11.6417 14.2084 15.2584 10.5917C18.875 6.97502 23.2889 5.16669 28.5 5.16669C33.7111 5.16669 38.125 6.97502 41.7417 10.5917C45.3584 14.2084 47.1667 18.6222 47.1667 23.8334C47.1667 26.2056 46.7584 28.4417 45.9417 30.5417C45.125 32.6417 43.9778 34.5084 42.5 36.1417V54.1667L28.5 49.5L14.5 54.1667ZM28.5 37.8334C32.3889 37.8334 35.6945 36.4722 38.4167 33.75C41.1389 31.0278 42.5 27.7222 42.5 23.8334C42.5 19.9445 41.1389 16.6389 38.4167 13.9167C35.6945 11.1945 32.3889 9.83335 28.5 9.83335C24.6111 9.83335 21.3056 11.1945 18.5834 13.9167C15.8612 16.6389 14.5 19.9445 14.5 23.8334C14.5 27.7222 15.8612 31.0278 18.5834 33.75C21.3056 36.4722 24.6111 37.8334 28.5 37.8334ZM19.1667 47.225L28.5 44.8334L37.8334 47.225V39.9917C36.4723 40.7695 35.0042 41.382 33.4292 41.8292C31.8542 42.2764 30.2111 42.5 28.5 42.5C26.7889 42.5 25.1459 42.2764 23.5709 41.8292C21.9959 41.382 20.5278 40.7695 19.1667 39.9917V47.225Z" fill="#FBFFFE"/>
</g>
</g>
</svg>
